<svg width="537" height="69" viewBox="0 0 537 69" fill="none" xmlns="http://www.w3.org/2000/svg">
<g id="Group 358">
<rect id="Rectangle 3" y="44" width="239" height="19" fill="#FFC800"/>
<g id="&#208;&#159;&#208;&#181;&#209;&#128;&#208;&#181;&#209;&#133;&#208;&#190;&#208;&#180;&#208;&#184; &#208;&#189;&#208;&#176; &#208;&#189;&#208;&#176;&#209;&#136;&#209;&#131; &#209;&#129;&#209;&#130;&#208;&#190;&#209;&#128;&#208;&#190;&#208;&#189;&#209;&#131; - &#208;&#191;&#209;&#128;&#208;&#184;&#209;&#129;&#208;&#190;&#208;&#181;&#208;&#180;&#208;&#184;&#208;&#189;&#209;&#143;&#208;&#185;&#209;&#129;&#209;&#143; &#208;&#186; &#208;&#186;&#208;&#190;&#208;&#188;&#208;&#176;&#208;&#189;&#208;&#180;&#208;&#181; &#208;&#177;&#208;&#184;&#208;&#187;&#208;&#176;&#208;&#185;&#208;&#189;&#208;&#176;">
<path d="M15.8573 23.8692V4.0718H6.05921V23.8692H2.31494V0H19.6016V23.8692H15.8573Z" fill="black"/>
<path d="M39.0854 18.3933C38.8522 19.4464 38.4206 20.4175 37.7907 21.3068C37.1608 22.1726 36.3093 22.8746 35.2362 23.4129C34.1864 23.9511 32.88 24.2202 31.3169 24.2202C29.7306 24.2202 28.3192 23.8341 27.0828 23.0618C25.8697 22.2896 24.9132 21.2249 24.2133 19.8676C23.5368 18.5103 23.1985 16.9775 23.1985 15.2693C23.1985 13.5376 23.5484 12.0048 24.2483 10.6709C24.9482 9.31366 25.9047 8.24891 27.1178 7.47667C28.3542 6.70443 29.7772 6.31831 31.3869 6.31831C32.9966 6.31831 34.408 6.70443 35.6211 7.47667C36.8342 8.22551 37.779 9.27856 38.4556 10.6358C39.1321 11.9931 39.4704 13.5844 39.4704 15.4097C39.4704 15.4799 39.4587 15.6086 39.4354 15.7958C39.4354 15.9596 39.4354 16.0766 39.4354 16.1468H26.7328C26.8728 17.5743 27.351 18.6858 28.1676 19.4815C29.0074 20.2771 30.0805 20.6749 31.3869 20.6749C32.5767 20.6749 33.5332 20.4643 34.2564 20.0431C35.0029 19.6219 35.5395 19.0719 35.8661 18.3933H39.0854ZM31.3869 9.86359C30.1505 9.86359 29.1357 10.2146 28.3425 10.9166C27.5493 11.5953 27.0361 12.5547 26.8028 13.795H35.9011C35.7378 12.6249 35.2712 11.6772 34.5013 10.9517C33.7548 10.2263 32.7167 9.86359 31.3869 9.86359Z" fill="black"/>
<path d="M46.0945 9.68808C46.5611 8.65843 47.2609 7.85109 48.1941 7.26606C49.1272 6.65763 50.282 6.35342 51.6584 6.35342C53.1981 6.35342 54.5512 6.71613 55.7176 7.44157C56.8841 8.1436 57.7939 9.14985 58.4471 10.4603C59.1003 11.7708 59.4269 13.327 59.4269 15.1289C59.4269 16.9073 59.1003 18.4869 58.4471 19.8676C57.7939 21.2249 56.8841 22.2896 55.7176 23.0618C54.5745 23.8107 53.2331 24.1851 51.6934 24.1851C50.4103 24.1851 49.3139 23.9628 48.404 23.5182C47.5175 23.0501 46.806 22.3481 46.2694 21.4121V30.8895H42.7001V6.66933H46.0945V9.68808ZM50.9235 20.3941C52.5566 20.3941 53.7813 19.9144 54.5978 18.9549C55.4377 17.9955 55.8576 16.7318 55.8576 15.164C55.8576 13.5727 55.4377 12.3441 54.5978 11.4783C53.7813 10.589 52.5449 10.1444 50.8885 10.1444C49.7454 10.1444 48.7773 10.3082 47.9841 10.6358C47.2143 10.9634 46.6427 11.49 46.2694 12.2154V18.3933C46.6427 19.1187 47.2143 19.6336 47.9841 19.9378C48.7773 20.242 49.7571 20.3941 50.9235 20.3941Z" fill="black"/>
<path d="M77.701 18.3933C77.4677 19.4464 77.0361 20.4175 76.4063 21.3068C75.7764 22.1726 74.9249 22.8746 73.8518 23.4129C72.802 23.9511 71.4956 24.2202 69.9325 24.2202C68.3462 24.2202 66.9348 23.8341 65.6983 23.0618C64.4852 22.2896 63.5288 21.2249 62.8289 19.8676C62.1524 18.5103 61.8141 16.9775 61.8141 15.2693C61.8141 13.5376 62.164 12.0048 62.8639 10.6709C63.5638 9.31366 64.5202 8.24891 65.7333 7.47667C66.9698 6.70443 68.3928 6.31831 70.0025 6.31831C71.6122 6.31831 73.0236 6.70443 74.2367 7.47667C75.4498 8.22551 76.3946 9.27856 77.0711 10.6358C77.7477 11.9931 78.0859 13.5844 78.0859 15.4097C78.0859 15.4799 78.0743 15.6086 78.0509 15.7958C78.0509 15.9596 78.0509 16.0766 78.0509 16.1468H65.3484C65.4884 17.5743 65.9666 18.6858 66.7831 19.4815C67.623 20.2771 68.6961 20.6749 70.0025 20.6749C71.1923 20.6749 72.1488 20.4643 72.8719 20.0431C73.6185 19.6219 74.155 19.0719 74.4816 18.3933H77.701ZM70.0025 9.86359C68.7661 9.86359 67.7513 10.2146 66.9581 10.9166C66.1649 11.5953 65.6517 12.5547 65.4184 13.795H74.5166C74.3533 12.6249 73.8867 11.6772 73.1169 10.9517C72.3704 10.2263 71.3322 9.86359 70.0025 9.86359Z" fill="black"/>
<path d="M78.9509 23.8692L84.7248 15.1289L79.1959 6.66933H83.5001L86.9644 12.3558L90.5337 6.66933H94.348L88.854 14.8831L94.6629 23.8692H90.3587L86.6494 17.6562L82.7652 23.8692H78.9509Z" fill="black"/>
<path d="M104.046 6.31831C105.773 6.31831 107.266 6.71613 108.525 7.51177C109.808 8.28401 110.8 9.34876 111.5 10.706C112.2 12.0399 112.55 13.5493 112.55 15.2342C112.55 16.919 112.2 18.4401 111.5 19.7974C110.8 21.1546 109.808 22.2311 108.525 23.0267C107.266 23.8224 105.773 24.2202 104.046 24.2202C102.32 24.2202 100.815 23.8224 99.5321 23.0267C98.2724 22.2311 97.2926 21.1546 96.5927 19.7974C95.8928 18.4401 95.5429 16.919 95.5429 15.2342C95.5429 13.5493 95.8928 12.0399 96.5927 10.706C97.2926 9.34876 98.2724 8.28401 99.5321 7.51177C100.815 6.71613 102.32 6.31831 104.046 6.31831ZM104.046 10.1795C102.553 10.1795 101.352 10.6475 100.442 11.5836C99.5555 12.4962 99.1122 13.7131 99.1122 15.2342C99.1122 16.7786 99.5555 18.0189 100.442 18.9549C101.352 19.891 102.553 20.359 104.046 20.359C105.539 20.359 106.729 19.891 107.616 18.9549C108.525 18.0189 108.98 16.7786 108.98 15.2342C108.98 13.7131 108.525 12.4962 107.616 11.5836C106.729 10.6475 105.539 10.1795 104.046 10.1795Z" fill="black"/>
<path d="M113.7 28.292V20.1484H115.31C116.383 19.0719 117.176 17.4339 117.689 15.2342C118.202 13.011 118.471 10.1561 118.494 6.66933H129.657V20.1484H132.211V28.292H128.782V23.8692H117.129V28.292H113.7ZM121.399 10.355C121.352 12.4143 121.142 14.2513 120.769 15.866C120.419 17.4807 119.836 18.9081 119.019 20.1484H126.088V10.355H121.399Z" fill="black"/>
<path d="M138.229 6.66933V18.0423L145.648 6.66933H149.042V23.8692H145.508V12.3558L138.054 23.8692H134.66V6.66933H138.229Z" fill="black"/>
<path d="M172.465 23.8692V16.8488H165.431V23.8692H161.862V6.66933H165.431V13.1632H172.465V6.66933H176.034V23.8692H172.465Z" fill="black"/>
<path d="M192.633 23.9394C191.723 23.9394 190.988 23.7054 190.428 23.2374C189.868 22.7459 189.53 22.0088 189.413 21.0259C188.9 21.9854 188.235 22.7225 187.419 23.2374C186.602 23.7522 185.611 24.0096 184.444 24.0096C182.928 24.0096 181.703 23.6001 180.77 22.781C179.86 21.962 179.405 20.7919 179.405 19.2709C179.405 18.2646 179.592 17.4339 179.965 16.7786C180.362 16.1234 180.933 15.5735 181.68 15.1289C182.426 14.6608 183.336 14.2279 184.409 13.8301L189.133 12.075C189.04 11.256 188.702 10.6943 188.119 10.3901C187.535 10.0859 186.836 9.93379 186.019 9.93379C185.109 9.93379 184.363 10.0976 183.779 10.4252C183.196 10.7528 182.835 11.2677 182.695 11.9697H179.615C179.779 10.706 180.163 9.65298 180.77 8.81054C181.377 7.96809 182.146 7.34796 183.08 6.95014C184.013 6.52892 185.039 6.31831 186.159 6.31831C188.119 6.31831 189.693 6.84484 190.883 7.89789C192.073 8.92754 192.656 10.5305 192.633 12.7068L192.528 18.8145C192.528 19.4464 192.621 19.891 192.808 20.1484C193.018 20.3824 193.344 20.4994 193.788 20.4994H194.312V23.8692C194.056 23.8926 193.776 23.9043 193.473 23.9043C193.169 23.9277 192.889 23.9394 192.633 23.9394ZM182.87 18.4986C182.87 19.1539 183.115 19.6453 183.604 19.9729C184.118 20.2771 184.783 20.4292 185.599 20.4292C186.369 20.4292 187.069 20.3239 187.699 20.1133C188.329 19.8793 188.795 19.5868 189.098 19.2358L189.168 14.497L186.054 15.6905C184.911 16.1351 184.094 16.5563 183.604 16.9541C183.115 17.3286 182.87 17.8434 182.87 18.4986Z" fill="black"/>
<path d="M216.035 23.8692V16.8488H209.002V23.8692H205.432V6.66933H209.002V13.1632H216.035V6.66933H219.605V23.8692H216.035Z" fill="black"/>
<path d="M236.203 23.9394C235.294 23.9394 234.559 23.7054 233.999 23.2374C233.439 22.7459 233.101 22.0088 232.984 21.0259C232.471 21.9854 231.806 22.7225 230.989 23.2374C230.173 23.7522 229.181 24.0096 228.015 24.0096C226.499 24.0096 225.274 23.6001 224.341 22.781C223.431 21.962 222.976 20.7919 222.976 19.2709C222.976 18.2646 223.163 17.4339 223.536 16.7786C223.932 16.1234 224.504 15.5735 225.251 15.1289C225.997 14.6608 226.907 14.2279 227.98 13.8301L232.704 12.075C232.611 11.256 232.272 10.6943 231.689 10.3901C231.106 10.0859 230.406 9.93379 229.59 9.93379C228.68 9.93379 227.933 10.0976 227.35 10.4252C226.767 10.7528 226.405 11.2677 226.265 11.9697H223.186C223.349 10.706 223.734 9.65298 224.341 8.81054C224.947 7.96809 225.717 7.34796 226.65 6.95014C227.583 6.52892 228.61 6.31831 229.73 6.31831C231.689 6.31831 233.264 6.84484 234.454 7.89789C235.644 8.92754 236.227 10.5305 236.203 12.7068L236.098 18.8145C236.098 19.4464 236.192 19.891 236.378 20.1484C236.588 20.3824 236.915 20.4994 237.358 20.4994H237.883V23.8692C237.626 23.8926 237.347 23.9043 237.043 23.9043C236.74 23.9277 236.46 23.9394 236.203 23.9394ZM226.44 18.4986C226.44 19.1539 226.685 19.6453 227.175 19.9729C227.688 20.2771 228.353 20.4292 229.17 20.4292C229.94 20.4292 230.639 20.3239 231.269 20.1133C231.899 19.8793 232.366 19.5868 232.669 19.2358L232.739 14.497L229.625 15.6905C228.482 16.1351 227.665 16.5563 227.175 16.9541C226.685 17.3286 226.44 17.8434 226.44 18.4986Z" fill="black"/>
<path d="M244.063 6.66933V20.1484H249.662V6.66933H253.196V20.1484H258.795V6.66933H262.365V23.8692H240.494V6.66933H244.063Z" fill="black"/>
<path d="M271.29 25.1679L271.675 23.8692H270.626L264.922 6.66933H268.771L273.005 19.8325L277.274 6.66933H280.634L274.09 26.2912C273.507 27.9995 272.818 29.2281 272.025 29.9769C271.232 30.7257 270.217 31.1001 268.981 31.1001C268.468 31.1001 268.013 31.0533 267.616 30.9597C267.22 30.8895 266.858 30.8076 266.531 30.714V27.0634C266.835 27.157 267.15 27.2273 267.476 27.2741C267.803 27.3209 268.153 27.3443 268.526 27.3443C269.202 27.3443 269.762 27.1804 270.206 26.8528C270.672 26.5252 271.034 25.9636 271.29 25.1679Z" fill="black"/>
<path d="M298.964 6.28321C301.04 6.28321 302.743 6.85654 304.073 8.0032C305.426 9.12645 306.277 10.6592 306.627 12.6015H303.443C303.21 11.8527 302.731 11.256 302.008 10.8113C301.308 10.3667 300.305 10.1444 298.999 10.1444C297.529 10.1444 296.374 10.6124 295.534 11.5485C294.695 12.4845 294.275 13.7014 294.275 15.1991C294.275 16.6967 294.695 17.9253 295.534 18.8847C296.374 19.8442 297.529 20.3239 298.999 20.3239C300.305 20.3239 301.308 20.1016 302.008 19.657C302.731 19.189 303.21 18.6039 303.443 17.9019H306.627C306.277 19.8208 305.426 21.3536 304.073 22.5002C302.743 23.6235 301.04 24.1851 298.964 24.1851C297.284 24.1851 295.826 23.7873 294.59 22.9916C293.353 22.196 292.397 21.1195 291.72 19.7623C291.044 18.405 290.705 16.8839 290.705 15.1991C290.705 13.5142 291.044 12.0048 291.72 10.6709C292.397 9.31366 293.353 8.24891 294.59 7.47667C295.826 6.68103 297.284 6.28321 298.964 6.28321Z" fill="black"/>
<path d="M308.502 6.66933H322.429V10.3901H317.25V23.8692H313.681V10.3901H308.502V6.66933Z" fill="black"/>
<path d="M332.596 6.31831C334.322 6.31831 335.815 6.71613 337.075 7.51177C338.358 8.28401 339.349 9.34876 340.049 10.706C340.749 12.0399 341.099 13.5493 341.099 15.2342C341.099 16.919 340.749 18.4401 340.049 19.7974C339.349 21.1546 338.358 22.2311 337.075 23.0267C335.815 23.8224 334.322 24.2202 332.596 24.2202C330.869 24.2202 329.365 23.8224 328.082 23.0267C326.822 22.2311 325.842 21.1546 325.142 19.7974C324.442 18.4401 324.092 16.919 324.092 15.2342C324.092 13.5493 324.442 12.0399 325.142 10.706C325.842 9.34876 326.822 8.28401 328.082 7.51177C329.365 6.71613 330.869 6.31831 332.596 6.31831ZM332.596 10.1795C331.103 10.1795 329.901 10.6475 328.992 11.5836C328.105 12.4962 327.662 13.7131 327.662 15.2342C327.662 16.7786 328.105 18.0189 328.992 18.9549C329.901 19.891 331.103 20.359 332.596 20.359C334.089 20.359 335.279 19.891 336.165 18.9549C337.075 18.0189 337.53 16.7786 337.53 15.2342C337.53 13.7131 337.075 12.4962 336.165 11.5836C335.279 10.6475 334.089 10.1795 332.596 10.1795Z" fill="black"/>
<path d="M347.774 9.68808C348.241 8.65843 348.941 7.85109 349.874 7.26606C350.807 6.65763 351.962 6.35342 353.338 6.35342C354.878 6.35342 356.231 6.71613 357.397 7.44157C358.564 8.1436 359.474 9.14985 360.127 10.4603C360.78 11.7708 361.107 13.327 361.107 15.1289C361.107 16.9073 360.78 18.4869 360.127 19.8676C359.474 21.2249 358.564 22.2896 357.397 23.0618C356.254 23.8107 354.913 24.1851 353.373 24.1851C352.09 24.1851 350.994 23.9628 350.084 23.5182C349.197 23.0501 348.486 22.3481 347.949 21.4121V30.8895H344.38V6.66933H347.774V9.68808ZM352.603 20.3941C354.236 20.3941 355.461 19.9144 356.278 18.9549C357.118 17.9955 357.538 16.7318 357.538 15.164C357.538 13.5727 357.118 12.3441 356.278 11.4783C355.461 10.589 354.225 10.1444 352.568 10.1444C351.425 10.1444 350.457 10.3082 349.664 10.6358C348.894 10.9634 348.323 11.49 347.949 12.2154V18.3933C348.323 19.1187 348.894 19.6336 349.664 19.9378C350.457 20.242 351.437 20.3941 352.603 20.3941Z" fill="black"/>
<path d="M371.997 6.31831C373.724 6.31831 375.217 6.71613 376.476 7.51177C377.76 8.28401 378.751 9.34876 379.451 10.706C380.151 12.0399 380.501 13.5493 380.501 15.2342C380.501 16.919 380.151 18.4401 379.451 19.7974C378.751 21.1546 377.76 22.2311 376.476 23.0267C375.217 23.8224 373.724 24.2202 371.997 24.2202C370.271 24.2202 368.766 23.8224 367.483 23.0267C366.223 22.2311 365.244 21.1546 364.544 19.7974C363.844 18.4401 363.494 16.919 363.494 15.2342C363.494 13.5493 363.844 12.0399 364.544 10.706C365.244 9.34876 366.223 8.28401 367.483 7.51177C368.766 6.71613 370.271 6.31831 371.997 6.31831ZM371.997 10.1795C370.504 10.1795 369.303 10.6475 368.393 11.5836C367.507 12.4962 367.063 13.7131 367.063 15.2342C367.063 16.7786 367.507 18.0189 368.393 18.9549C369.303 19.891 370.504 20.359 371.997 20.359C373.49 20.359 374.68 19.891 375.567 18.9549C376.476 18.0189 376.931 16.7786 376.931 15.2342C376.931 13.7131 376.476 12.4962 375.567 11.5836C374.68 10.6475 373.49 10.1795 371.997 10.1795Z" fill="black"/>
<path d="M394.385 23.8692V16.8488H387.351V23.8692H383.782V6.66933H387.351V13.1632H394.385V6.66933H397.954V23.8692H394.385Z" fill="black"/>
<path d="M406.889 25.1679L407.274 23.8692H406.224L400.52 6.66933H404.37L408.604 19.8325L412.873 6.66933H416.232L409.689 26.2912C409.105 27.9995 408.417 29.2281 407.624 29.9769C406.831 30.7257 405.816 31.1001 404.58 31.1001C404.066 31.1001 403.611 31.0533 403.215 30.9597C402.818 30.8895 402.457 30.8076 402.13 30.714V27.0634C402.433 27.157 402.748 27.2273 403.075 27.2741C403.401 27.3209 403.751 27.3443 404.125 27.3443C404.801 27.3443 405.361 27.1804 405.804 26.8528C406.271 26.5252 406.633 25.9636 406.889 25.1679Z" fill="black"/>
<path d="M436.277 16.0064H426.829V12.5664H436.277V16.0064Z" fill="black"/>
<path d="M12.533 61.9796V48.4655H5.56931V61.9796H2V44.7798H16.1023V61.9796H12.533Z" fill="black"/>
<path d="M23.7795 47.7985C24.246 46.7689 24.9459 45.9616 25.8791 45.3765C26.8122 44.7681 27.967 44.4639 29.3434 44.4639C30.8831 44.4639 32.2362 44.8266 33.4026 45.552C34.569 46.2541 35.4789 47.2603 36.1321 48.5708C36.7853 49.8812 37.1119 51.4374 37.1119 53.2393C37.1119 55.0178 36.7853 56.5974 36.1321 57.9781C35.4789 59.3353 34.569 60.4001 33.4026 61.1723C32.2595 61.9211 30.9181 62.2956 29.3784 62.2956C28.0953 62.2956 26.9988 62.0733 26.089 61.6286C25.2025 61.1606 24.491 60.4586 23.9544 59.5225V69H20.3851V44.7798H23.7795V47.7985ZM28.6085 58.5046C30.2415 58.5046 31.4663 58.0249 32.2828 57.0654C33.1227 56.106 33.5426 54.8423 33.5426 53.2744C33.5426 51.6831 33.1227 50.4546 32.2828 49.5887C31.4663 48.6995 30.2299 48.2549 28.5735 48.2549C27.4304 48.2549 26.4623 48.4187 25.6691 48.7463C24.8992 49.0739 24.3277 49.6004 23.9544 50.3259V56.5038C24.3277 57.2292 24.8992 57.744 25.6691 58.0483C26.4623 58.3525 27.4421 58.5046 28.6085 58.5046Z" fill="black"/>
<path d="M44.0482 44.7798V56.1528L51.4668 44.7798H54.8611V61.9796H51.3268V50.4663L43.8732 61.9796H40.4789V44.7798H44.0482Z" fill="black"/>
<path d="M66.4501 44.3937C68.5264 44.3937 70.2294 44.967 71.5592 46.1137C72.9122 47.2369 73.7637 48.7697 74.1137 50.712H70.9293C70.696 49.9632 70.2178 49.3664 69.4946 48.9218C68.7947 48.4772 67.7916 48.2549 66.4851 48.2549C65.0154 48.2549 63.8606 48.7229 63.0208 49.6589C62.181 50.595 61.7611 51.8118 61.7611 53.3095C61.7611 54.8072 62.181 56.0358 63.0208 56.9952C63.8606 57.9547 65.0154 58.4344 66.4851 58.4344C67.7916 58.4344 68.7947 58.2121 69.4946 57.7674C70.2178 57.2994 70.696 56.7144 70.9293 56.0123H74.1137C73.7637 57.9312 72.9122 59.464 71.5592 60.6107C70.2294 61.7339 68.5264 62.2956 66.4501 62.2956C64.7705 62.2956 63.3124 61.8977 62.076 61.1021C60.8396 60.3065 59.8831 59.23 59.2065 57.8727C58.53 56.5155 58.1917 54.9944 58.1917 53.3095C58.1917 51.6246 58.53 50.1153 59.2065 48.7814C59.8831 47.4241 60.8396 46.3594 62.076 45.5871C63.3124 44.7915 64.7705 44.3937 66.4501 44.3937Z" fill="black"/>
<path d="M84.8068 44.4288C86.5332 44.4288 88.0262 44.8266 89.286 45.6222C90.569 46.3945 91.5605 47.4592 92.2604 48.8165C92.9603 50.1504 93.3102 51.6597 93.3102 53.3446C93.3102 55.0295 92.9603 56.5506 92.2604 57.9078C91.5605 59.2651 90.569 60.3416 89.286 61.1372C88.0262 61.9328 86.5332 62.3307 84.8068 62.3307C83.0805 62.3307 81.5758 61.9328 80.2927 61.1372C79.0329 60.3416 78.0531 59.2651 77.3533 57.9078C76.6534 56.5506 76.3035 55.0295 76.3035 53.3446C76.3035 51.6597 76.6534 50.1504 77.3533 48.8165C78.0531 47.4592 79.0329 46.3945 80.2927 45.6222C81.5758 44.8266 83.0805 44.4288 84.8068 44.4288ZM84.8068 48.29C83.3138 48.29 82.1124 48.758 81.2025 49.694C80.316 50.6067 79.8728 51.8235 79.8728 53.3446C79.8728 54.8891 80.316 56.1294 81.2025 57.0654C82.1124 58.0015 83.3138 58.4695 84.8068 58.4695C86.2999 58.4695 87.4896 58.0015 88.3761 57.0654C89.286 56.1294 89.7409 54.8891 89.7409 53.3446C89.7409 51.8235 89.286 50.6067 88.3761 49.694C87.4896 48.758 86.2999 48.29 84.8068 48.29Z" fill="black"/>
<path d="M111.498 56.5038C111.265 57.5568 110.833 58.528 110.203 59.4172C109.574 60.2831 108.722 60.9851 107.649 61.5233C106.599 62.0616 105.293 62.3307 103.73 62.3307C102.143 62.3307 100.732 61.9445 99.4955 61.1723C98.2824 60.4001 97.3259 59.3353 96.6261 57.9781C95.9495 56.6208 95.6113 55.088 95.6113 53.3797C95.6113 51.648 95.9612 50.1153 96.6611 48.7814C97.3609 47.4241 98.3174 46.3594 99.5305 45.5871C100.767 44.8149 102.19 44.4288 103.8 44.4288C105.409 44.4288 106.821 44.8149 108.034 45.5871C109.247 46.336 110.192 47.389 110.868 48.7463C111.545 50.1036 111.883 51.6948 111.883 53.5201C111.883 53.5903 111.871 53.719 111.848 53.9062C111.848 54.0701 111.848 54.1871 111.848 54.2573H99.1456C99.2855 55.6847 99.7638 56.7963 100.58 57.5919C101.42 58.3876 102.493 58.7854 103.8 58.7854C104.989 58.7854 105.946 58.5748 106.669 58.1536C107.416 57.7323 107.952 57.1824 108.279 56.5038H111.498ZM103.8 47.9741C102.563 47.9741 101.548 48.3251 100.755 49.0271C99.9621 49.7057 99.4489 50.6652 99.2156 51.9054H108.314C108.15 50.7354 107.684 49.7876 106.914 49.0622C106.168 48.3368 105.129 47.9741 103.8 47.9741Z" fill="black"/>
<path d="M112.982 66.4025V58.2589H114.592C115.665 57.1824 116.458 55.5443 116.972 53.3446C117.485 51.1215 117.753 48.2666 117.776 44.7798H128.939V58.2589H131.494V66.4025H128.064V61.9796H116.412V66.4025H112.982ZM120.681 48.4655C120.634 50.5248 120.424 52.3618 120.051 53.9765C119.701 55.5911 119.118 57.0186 118.301 58.2589H125.37V48.4655H120.681Z" fill="black"/>
<path d="M137.512 44.7798V56.1528L144.93 44.7798H148.324V61.9796H144.79V50.4663L137.337 61.9796H133.942V44.7798H137.512Z" fill="black"/>
<path d="M163.238 61.9796V54.9593H156.204V61.9796H152.635V44.7798H156.204V51.2736H163.238V44.7798H166.807V61.9796H163.238Z" fill="black"/>
<path d="M169.654 61.9796L175.148 55.1699C174.214 55.0997 173.375 54.8891 172.628 54.5381C171.882 54.1637 171.287 53.6137 170.843 52.8883C170.424 52.1629 170.214 51.2385 170.214 50.1153C170.214 48.9452 170.482 47.9741 171.018 47.2018C171.578 46.4062 172.325 45.8094 173.258 45.4116C174.214 44.9904 175.264 44.7798 176.407 44.7798H183.406V61.9796H179.872V55.1699H179.207L173.958 61.9796H169.654ZM176.827 52.8181H179.872V48.3602H176.862C175.859 48.3602 175.089 48.524 174.553 48.8516C174.016 49.1792 173.748 49.7525 173.748 50.5716C173.748 51.3204 174.028 51.882 174.588 52.2565C175.148 52.6309 175.894 52.8181 176.827 52.8181Z" fill="black"/>
<path d="M191.232 44.7798V56.1528L198.65 44.7798H202.045V61.9796H198.51V50.4663L191.057 61.9796H187.662V44.7798H191.232ZM192.806 39.1986C193.016 39.7602 193.308 40.1815 193.681 40.4623C194.054 40.7431 194.556 40.8835 195.186 40.8835C195.816 40.8835 196.317 40.7431 196.691 40.4623C197.064 40.1815 197.355 39.7602 197.565 39.1986H199.98C199.887 40.5091 199.443 41.5855 198.65 42.428C197.88 43.247 196.726 43.6565 195.186 43.6565C193.623 43.6565 192.456 43.247 191.687 42.428C190.917 41.5855 190.485 40.5091 190.392 39.1986H192.806Z" fill="black"/>
<path d="M213.634 44.3937C215.71 44.3937 217.413 44.967 218.743 46.1137C220.096 47.2369 220.947 48.7697 221.297 50.712H218.113C217.879 49.9632 217.401 49.3664 216.678 48.9218C215.978 48.4772 214.975 48.2549 213.669 48.2549C212.199 48.2549 211.044 48.7229 210.204 49.6589C209.364 50.595 208.944 51.8118 208.944 53.3095C208.944 54.8072 209.364 56.0358 210.204 56.9952C211.044 57.9547 212.199 58.4344 213.669 58.4344C214.975 58.4344 215.978 58.2121 216.678 57.7674C217.401 57.2994 217.879 56.7144 218.113 56.0123H221.297C220.947 57.9312 220.096 59.464 218.743 60.6107C217.413 61.7339 215.71 62.2956 213.634 62.2956C211.954 62.2956 210.496 61.8977 209.259 61.1021C208.023 60.3065 207.067 59.23 206.39 57.8727C205.713 56.5155 205.375 54.9944 205.375 53.3095C205.375 51.6246 205.713 50.1153 206.39 48.7814C207.067 47.4241 208.023 46.3594 209.259 45.5871C210.496 44.7915 211.954 44.3937 213.634 44.3937Z" fill="black"/>
<path d="M223.032 61.9796L228.526 55.1699C227.593 55.0997 226.753 54.8891 226.006 54.5381C225.26 54.1637 224.665 53.6137 224.222 52.8883C223.802 52.1629 223.592 51.2385 223.592 50.1153C223.592 48.9452 223.86 47.9741 224.397 47.2018C224.957 46.4062 225.703 45.8094 226.636 45.4116C227.593 44.9904 228.643 44.7798 229.786 44.7798H236.784V61.9796H233.25V55.1699H232.585L227.336 61.9796H223.032ZM230.206 52.8181H233.25V48.3602H230.241C229.237 48.3602 228.468 48.524 227.931 48.8516C227.394 49.1792 227.126 49.7525 227.126 50.5716C227.126 51.3204 227.406 51.882 227.966 52.2565C228.526 52.6309 229.272 52.8181 230.206 52.8181Z" fill="black"/>
<path d="M259.138 61.9796L253.119 53.6605V61.9796H249.55V44.7798H253.119V52.7479L259.418 44.7798H263.407L256.793 52.7479L263.477 61.9796H259.138Z" fill="black"/>
<path d="M283.879 61.9796L277.86 53.6605V61.9796H274.291V44.7798H277.86V52.7479L284.159 44.7798H288.148L281.535 52.7479L288.218 61.9796H283.879Z" fill="black"/>
<path d="M297.295 44.4288C299.021 44.4288 300.514 44.8266 301.774 45.6222C303.057 46.3945 304.049 47.4592 304.749 48.8165C305.448 50.1504 305.798 51.6597 305.798 53.3446C305.798 55.0295 305.448 56.5506 304.749 57.9078C304.049 59.2651 303.057 60.3416 301.774 61.1372C300.514 61.9328 299.021 62.3307 297.295 62.3307C295.569 62.3307 294.064 61.9328 292.781 61.1372C291.521 60.3416 290.541 59.2651 289.841 57.9078C289.142 56.5506 288.792 55.0295 288.792 53.3446C288.792 51.6597 289.142 50.1504 289.841 48.8165C290.541 47.4592 291.521 46.3945 292.781 45.6222C294.064 44.8266 295.569 44.4288 297.295 44.4288ZM297.295 48.29C295.802 48.29 294.601 48.758 293.691 49.694C292.804 50.6067 292.361 51.8235 292.361 53.3446C292.361 54.8891 292.804 56.1294 293.691 57.0654C294.601 58.0015 295.802 58.4695 297.295 58.4695C298.788 58.4695 299.978 58.0015 300.864 57.0654C301.774 56.1294 302.229 54.8891 302.229 53.3446C302.229 51.8235 301.774 50.6067 300.864 49.694C299.978 48.758 298.788 48.29 297.295 48.29Z" fill="black"/>
<path d="M312.544 61.9796H309.079V44.7798H313.838L318.527 53.9765L323.217 44.7798H327.801V61.9796H324.266V49.694L319.157 59.4523H317.653L312.544 49.694V61.9796Z" fill="black"/>
<path d="M344.395 62.0499C343.486 62.0499 342.751 61.8158 342.191 61.3478C341.631 60.8564 341.293 60.1193 341.176 59.1364C340.663 60.0959 339.998 60.833 339.181 61.3478C338.365 61.8626 337.373 62.1201 336.207 62.1201C334.691 62.1201 333.466 61.7105 332.533 60.8915C331.623 60.0725 331.168 58.9024 331.168 57.3813C331.168 56.3751 331.355 55.5443 331.728 54.8891C332.124 54.2339 332.696 53.6839 333.442 53.2393C334.189 52.7713 335.099 52.3384 336.172 51.9406L340.896 50.1855C340.803 49.3664 340.464 48.8048 339.881 48.5006C339.298 48.1964 338.598 48.0443 337.782 48.0443C336.872 48.0443 336.125 48.2081 335.542 48.5357C334.959 48.8633 334.597 49.3781 334.457 50.0802H331.378C331.541 48.8165 331.926 47.7634 332.533 46.921C333.139 46.0786 333.909 45.4584 334.842 45.0606C335.775 44.6394 336.802 44.4288 337.922 44.4288C339.881 44.4288 341.456 44.9553 342.646 46.0084C343.835 47.038 344.419 48.641 344.395 50.8173L344.29 56.925C344.29 57.5568 344.384 58.0014 344.57 58.2589C344.78 58.4929 345.107 58.6099 345.55 58.6099H346.075V61.9796C345.818 62.003 345.538 62.0147 345.235 62.0147C344.932 62.0382 344.652 62.0499 344.395 62.0499ZM334.632 56.6091C334.632 57.2643 334.877 57.7557 335.367 58.0834C335.88 58.3876 336.545 58.5397 337.362 58.5397C338.132 58.5397 338.831 58.4344 339.461 58.2238C340.091 57.9897 340.558 57.6972 340.861 57.3462L340.931 52.6075L337.817 53.8009C336.673 54.2456 335.857 54.6668 335.367 55.0646C334.877 55.439 334.632 55.9538 334.632 56.6091Z" fill="black"/>
<path d="M359.289 61.9796V54.9593H352.255V61.9796H348.686V44.7798H352.255V51.2736H359.289V44.7798H362.858V61.9796H359.289Z" fill="black"/>
<path d="M365.18 66.4025V58.2589H366.789C367.862 57.1824 368.656 55.5443 369.169 53.3446C369.682 51.1215 369.95 48.2666 369.974 44.7798H381.137V58.2589H383.691V66.4025H380.262V61.9796H368.609V66.4025H365.18ZM372.878 48.4655C372.832 50.5248 372.622 52.3618 372.248 53.9765C371.898 55.5911 371.315 57.0186 370.499 58.2589H377.567V48.4655H372.878Z" fill="black"/>
<path d="M401.047 56.5038C400.813 57.5568 400.382 58.528 399.752 59.4172C399.122 60.2831 398.271 60.9851 397.197 61.5233C396.148 62.0616 394.841 62.3307 393.278 62.3307C391.692 62.3307 390.28 61.9445 389.044 61.1723C387.831 60.4001 386.874 59.3353 386.175 57.9781C385.498 56.6208 385.16 55.088 385.16 53.3797C385.16 51.648 385.51 50.1153 386.21 48.7814C386.909 47.4241 387.866 46.3594 389.079 45.5871C390.315 44.8149 391.738 44.4288 393.348 44.4288C394.958 44.4288 396.369 44.8149 397.582 45.5871C398.795 46.336 399.74 47.389 400.417 48.7463C401.093 50.1036 401.432 51.6948 401.432 53.5201C401.432 53.5903 401.42 53.719 401.397 53.9062C401.397 54.0701 401.397 54.1871 401.397 54.2573H388.694C388.834 55.6847 389.312 56.7963 390.129 57.5919C390.969 58.3876 392.042 58.7854 393.348 58.7854C394.538 58.7854 395.494 58.5748 396.218 58.1536C396.964 57.7323 397.501 57.1824 397.827 56.5038H401.047ZM393.348 47.9741C392.112 47.9741 391.097 48.3251 390.304 49.0271C389.511 49.7057 388.997 50.6652 388.764 51.9054H397.862C397.699 50.7354 397.232 49.7876 396.463 49.0622C395.716 48.3368 394.678 47.9741 393.348 47.9741Z" fill="black"/>
<path d="M421.989 45.201C423.505 45.201 424.811 45.5403 425.908 46.219C427.028 46.8742 427.891 47.8219 428.497 49.0622C429.127 50.3025 429.442 51.7767 429.442 53.485C429.442 55.1933 429.104 56.7144 428.427 58.0483C427.774 59.3821 426.818 60.4352 425.558 61.2074C424.298 61.9562 422.77 62.3307 420.974 62.3307C419.201 62.3307 417.673 61.9211 416.39 61.1021C415.107 60.2831 414.127 59.0662 413.45 57.4515C412.774 55.8134 412.436 53.7775 412.436 51.3438C412.436 48.7697 412.681 46.57 413.17 44.7447C413.66 42.896 414.488 41.4334 415.655 40.357C416.821 39.2571 418.419 38.5668 420.449 38.286L427.868 37.268V40.9888L421.009 42.0419C419.819 42.2291 418.874 42.5801 418.174 43.0949C417.475 43.5863 416.961 44.265 416.635 45.1308C416.331 45.9967 416.122 47.0614 416.005 48.3251C416.658 47.272 417.498 46.4881 418.524 45.9733C419.551 45.4584 420.706 45.201 421.989 45.201ZM421.184 48.7463C420.111 48.7463 419.131 48.9101 418.244 49.2377C417.381 49.5419 416.681 50.0334 416.145 50.712V52.6777C416.145 54.5498 416.565 56.0007 417.405 57.0303C418.268 58.0366 419.458 58.5397 420.974 58.5397C422.49 58.5397 423.68 58.1068 424.543 57.2409C425.43 56.3517 425.873 55.0997 425.873 53.485C425.873 51.8703 425.453 50.6769 424.613 49.9046C423.773 49.1324 422.63 48.7463 421.184 48.7463Z" fill="black"/>
<path d="M436.287 44.7798V56.1528L443.705 44.7798H447.1V61.9796H443.565V50.4663L436.112 61.9796H432.717V44.7798H436.287Z" fill="black"/>
<path d="M449.695 58.1887C449.835 58.2121 449.999 58.2355 450.185 58.2589C450.395 58.2823 450.617 58.294 450.85 58.294C451.597 58.294 452.145 57.8844 452.495 57.0654C452.845 56.223 453.113 54.9359 453.3 53.2042C453.416 52.1044 453.51 50.8524 453.58 49.4483C453.673 48.0443 453.743 46.4881 453.79 44.7798H464.987V61.9796H461.453V48.4655H456.764C456.741 49.3313 456.694 50.244 456.624 51.2034C456.577 52.1395 456.519 53.017 456.449 53.836C456.286 55.8485 456.029 57.4749 455.679 58.7152C455.329 59.932 454.839 60.8213 454.21 61.3829C453.58 61.9211 452.74 62.1903 451.69 62.1903C451.317 62.1903 450.955 62.1669 450.605 62.1201C450.255 62.0732 449.952 62.003 449.695 61.9094V58.1887Z" fill="black"/>
<path d="M481.566 62.0499C480.656 62.0499 479.921 61.8158 479.361 61.3478C478.802 60.8564 478.463 60.1193 478.347 59.1364C477.833 60.0959 477.169 60.833 476.352 61.3478C475.536 61.8626 474.544 62.1201 473.378 62.1201C471.861 62.1201 470.637 61.7105 469.703 60.8915C468.794 60.0725 468.339 58.9024 468.339 57.3813C468.339 56.3751 468.525 55.5443 468.898 54.8891C469.295 54.2339 469.867 53.6839 470.613 53.2393C471.36 52.7713 472.27 52.3384 473.343 51.9406L478.067 50.1855C477.973 49.3664 477.635 48.8048 477.052 48.5006C476.469 48.1964 475.769 48.0443 474.952 48.0443C474.043 48.0443 473.296 48.2081 472.713 48.5357C472.13 48.8633 471.768 49.3781 471.628 50.0802H468.549C468.712 48.8165 469.097 47.7634 469.703 46.921C470.31 46.0786 471.08 45.4584 472.013 45.0606C472.946 44.6394 473.973 44.4288 475.092 44.4288C477.052 44.4288 478.627 44.9553 479.816 46.0084C481.006 47.038 481.589 48.641 481.566 50.8173L481.461 56.925C481.461 57.5568 481.554 58.0014 481.741 58.2589C481.951 58.4929 482.278 58.6099 482.721 58.6099H483.246V61.9796C482.989 62.003 482.709 62.0147 482.406 62.0147C482.103 62.0382 481.823 62.0499 481.566 62.0499ZM471.803 56.6091C471.803 57.2643 472.048 57.7557 472.538 58.0834C473.051 58.3876 473.716 58.5397 474.532 58.5397C475.302 58.5397 476.002 58.4344 476.632 58.2238C477.262 57.9897 477.728 57.6972 478.032 57.3462L478.102 52.6075L474.987 53.8009C473.844 54.2456 473.028 54.6668 472.538 55.0646C472.048 55.439 471.803 55.9538 471.803 56.6091Z" fill="black"/>
<path d="M489.426 44.7798V56.1528L496.844 44.7798H500.239V61.9796H496.704V50.4663L489.251 61.9796H485.857V44.7798H489.426ZM491.001 39.1986C491.211 39.7602 491.502 40.1815 491.875 40.4623C492.249 40.7431 492.75 40.8835 493.38 40.8835C494.01 40.8835 494.512 40.7431 494.885 40.4623C495.258 40.1815 495.55 39.7602 495.76 39.1986H498.174C498.081 40.5091 497.638 41.5855 496.844 42.428C496.075 43.247 494.92 43.6565 493.38 43.6565C491.817 43.6565 490.651 43.247 489.881 42.428C489.111 41.5855 488.679 40.5091 488.586 39.1986H491.001Z" fill="black"/>
<path d="M515.152 61.9796V54.9593H508.119V61.9796H504.549V44.7798H508.119V51.2736H515.152V44.7798H518.721V61.9796H515.152Z" fill="black"/>
<path d="M535.32 62.0499C534.411 62.0499 533.676 61.8158 533.116 61.3478C532.556 60.8564 532.218 60.1193 532.101 59.1364C531.588 60.0959 530.923 60.833 530.106 61.3478C529.29 61.8626 528.298 62.1201 527.132 62.1201C525.616 62.1201 524.391 61.7105 523.458 60.8915C522.548 60.0725 522.093 58.9024 522.093 57.3813C522.093 56.3751 522.28 55.5443 522.653 54.8891C523.049 54.2339 523.621 53.6839 524.367 53.2393C525.114 52.7713 526.024 52.3384 527.097 51.9406L531.821 50.1855C531.728 49.3664 531.389 48.8048 530.806 48.5006C530.223 48.1964 529.523 48.0443 528.707 48.0443C527.797 48.0443 527.05 48.2081 526.467 48.5357C525.884 48.8633 525.522 49.3781 525.382 50.0802H522.303C522.466 48.8165 522.851 47.7634 523.458 46.921C524.064 46.0786 524.834 45.4584 525.767 45.0606C526.7 44.6394 527.727 44.4288 528.847 44.4288C530.806 44.4288 532.381 44.9553 533.571 46.0084C534.76 47.038 535.344 48.641 535.32 50.8173L535.215 56.925C535.215 57.5568 535.309 58.0014 535.495 58.2589C535.705 58.4929 536.032 58.6099 536.475 58.6099H537V61.9796C536.743 62.003 536.463 62.0147 536.16 62.0147C535.857 62.0382 535.577 62.0499 535.32 62.0499ZM525.557 56.6091C525.557 57.2643 525.802 57.7557 526.292 58.0834C526.805 58.3876 527.47 58.5397 528.287 58.5397C529.057 58.5397 529.756 58.4344 530.386 58.2238C531.016 57.9897 531.483 57.6972 531.786 57.3462L531.856 52.6075L528.742 53.8009C527.598 54.2456 526.782 54.6668 526.292 55.0646C525.802 55.439 525.557 55.9538 525.557 56.6091Z" fill="black"/>
</g>
</g>
</svg>
